<svg xmlns="http://www.w3.org/2000/svg" width="200" height="72" viewBox="0 0 200 72" fill="none"><path d="M60.4033 59.5856C60.4033 59.5856 60.4033 59.5448 60.4033 59.5312H62.1406C62.1406 59.5312 62.1406 59.572 62.1406 59.5856H60.4305H60.4033Z" fill="white"></path><path d="M46.1346 33.0779C44.9261 32.7792 43.7854 32.236 42.7806 31.4756C39.4267 29.1401 37.8651 24.9714 38.8835 21.0065C39.6304 17.0279 42.7942 13.932 46.7999 13.2938C52.3129 12.1803 57.6765 15.7379 58.7899 21.2509C59.8491 26.5058 56.6581 31.6929 51.471 33.0915C51.1994 33.1594 51.0772 33.1866 51.1044 32.82C51.1587 31.9238 51.1723 31.014 51.1723 30.1178C51.1587 29.9412 51.2673 29.7783 51.4438 29.7376C55.0286 28.2711 56.7396 24.1839 55.2731 20.6127C53.8066 17.0279 49.7194 15.317 46.1482 16.7835C43.4188 17.8969 41.6808 20.5991 41.803 23.5457C41.8709 26.1121 43.3645 28.4204 45.6729 29.5203C45.863 29.6289 46.0124 29.7104 46.0259 29.982C46.0531 31.014 46.0938 32.046 46.1346 33.1051" fill="white"></path><path d="M69.9796 36.4987C64.5753 31.7597 56.3737 32.2078 51.5261 37.5171C51.0237 38.0874 50.562 38.6848 50.1275 39.3095V38.9836C50.1682 37.7886 50.209 36.5937 50.2361 35.3852C50.2904 33.2262 50.3447 31.0672 50.3991 28.9082C50.467 26.2739 50.5484 23.6396 50.6028 21.0053C50.6163 19.8647 49.7066 18.9278 48.5659 18.9142C47.4253 18.9006 46.4884 19.8104 46.4748 20.951C46.4748 20.9918 46.4748 21.0325 46.4748 21.0732C46.5427 23.0965 46.6242 25.1333 46.7056 27.1565C46.8686 31.3252 47.0315 35.4803 47.1945 39.6489C47.2216 40.4365 47.1945 41.224 47.1945 42.0388C47.1945 42.0388 47.1537 41.998 47.113 41.9709C46.0539 41.2105 44.8318 40.6809 43.5418 40.4636C41.5458 40.0834 39.4818 40.0563 37.4721 40.3958C35.2724 40.6945 33.1677 41.4142 31.2531 42.5276C30.5198 42.9078 29.868 43.451 29.3521 44.1028V44.5372C29.4199 44.9718 29.8137 45.2705 30.2483 45.2026C30.3433 45.189 30.4383 45.1619 30.5198 45.1076C30.9136 44.9446 31.2938 44.7545 31.6876 44.5644C34.2947 43.3559 37.2006 42.9621 40.0385 43.4238C42.7678 43.7769 45.212 45.3384 46.6649 47.6739C47.6426 49.1404 48.4709 50.6884 49.2992 52.2364C50.4126 54.4226 52.0828 56.2693 54.1468 57.5864C56.0207 58.8492 58.234 59.5282 60.5016 59.5417C61.0448 59.5282 61.5879 59.5689 62.1311 59.5146C65.1727 59.3788 68.0514 58.1296 70.2376 56.0249C73.4286 53.1598 74.963 48.8688 74.3248 44.6187C73.9581 41.4549 72.3966 38.549 69.9796 36.4851M61.2485 56.1471C55.8441 56.1471 51.4854 51.7475 51.499 46.3568C51.499 40.9525 55.8984 36.5937 61.2892 36.6073C66.6799 36.6209 71.0523 41.0068 71.0387 46.3976C71.0116 51.7883 66.6392 56.1471 61.2485 56.1471Z" fill="white"></path><path d="M125.069 35.4522C118.782 35.235 113.5 40.1505 113.282 46.4375C113.065 52.7244 117.981 58.0065 124.267 58.2238C130.554 58.441 135.837 53.5255 136.054 47.2386C136.054 47.13 136.054 47.0078 136.054 46.8991C136.04 40.7616 131.193 35.7238 125.069 35.4522ZM124.661 54.734C120.303 54.7069 116.786 51.1628 116.799 46.7905C116.826 42.4317 120.37 38.9149 124.743 38.9284C129.102 38.9556 132.618 42.4996 132.605 46.872C132.605 46.8855 132.605 46.9127 132.605 46.9263C132.578 51.2715 129.034 54.7612 124.688 54.734C124.688 54.734 124.688 54.734 124.675 54.734" fill="white"></path><path d="M160.647 51.9939V46.8611C160.647 46.0057 160.565 45.1502 160.389 44.3219C158.99 38.1843 152.893 34.3551 146.769 35.7402C141.799 36.8672 138.174 41.1716 137.916 46.2772C137.821 50.1743 137.889 54.0714 137.875 57.9685C137.875 58.2129 137.984 58.2401 138.174 58.2401C139.111 58.2401 140.048 58.2401 140.998 58.2537C141.297 58.2537 141.365 58.1722 141.365 57.8871C141.365 54.3023 141.365 50.7039 141.365 47.1191C141.365 46.6032 141.392 46.0735 141.46 45.5576C142.18 41.3617 146.077 38.483 150.3 39.0262C154.238 39.5286 157.198 42.8826 157.171 46.8611C157.171 50.4323 157.171 54.0171 157.171 57.5883C157.171 57.697 157.171 57.8056 157.171 57.9142C157.157 58.1586 157.238 58.2672 157.51 58.2537C158.433 58.2401 159.37 58.2401 160.294 58.2537C160.565 58.2537 160.66 58.1858 160.647 57.9006C160.647 55.9453 160.647 53.9764 160.647 52.021" fill="white"></path><path d="M98.7243 35.4667C97.801 35.4803 96.8641 35.4939 95.9407 35.4667C95.6148 35.4667 95.5469 35.5482 95.5469 35.8605C95.5469 39.5132 95.5469 43.1523 95.5469 46.805C95.5198 51.1773 91.9621 54.6942 87.5898 54.667C83.2989 54.6399 79.8092 51.1909 79.7277 46.8864C79.7277 43.2066 79.7277 39.5132 79.7277 35.8333C79.7277 35.5346 79.6462 35.4667 79.3611 35.4667C78.4513 35.4803 77.528 35.4803 76.6182 35.4667C76.333 35.4667 76.238 35.521 76.238 35.8333C76.238 39.4453 76.238 43.0572 76.238 46.6692C76.1972 48.5566 76.6318 50.4169 77.5008 52.0871C80.4067 57.6679 87.2775 59.8541 92.8719 56.9483C96.5517 55.0337 98.9009 51.2724 99.0095 47.1173V35.779C99.0095 35.5346 98.9688 35.4531 98.6972 35.4531" fill="white"></path><path d="M113.743 54.9185C113.648 54.7963 113.499 54.7284 113.349 54.7556C112.67 54.7692 111.991 54.7556 111.312 54.6877C107.633 54.1581 104.835 51.1165 104.605 47.4095C104.537 44.7345 104.605 42.0595 104.577 39.3981C104.577 39.0179 104.7 38.9635 105.039 38.9635C107.782 38.9771 110.538 38.9635 113.281 38.9635C113.499 38.9771 113.702 38.8821 113.824 38.7055C114.137 38.2982 114.463 37.918 114.816 37.5378C115.535 36.8045 116.296 36.112 117.111 35.4874H105.053C104.745 35.4874 104.591 35.329 104.591 35.0121V27.2722C104.591 27.0007 104.523 26.9056 104.238 26.9192C103.328 26.9328 102.405 26.9464 101.495 26.9192C101.156 26.9192 101.088 27.0279 101.101 27.3402C101.101 33.7901 101.101 40.2399 101.101 46.6898C101.101 47.2601 101.128 47.8304 101.196 48.4007C101.481 50.6684 102.459 52.7867 104.021 54.4704C106.112 56.8603 109.126 58.2317 112.29 58.2453C113.797 58.2725 115.305 58.2453 116.825 58.2453C116.92 58.2453 117.029 58.2996 117.124 58.191C117.097 58.1639 117.07 58.1367 117.043 58.1095C115.78 57.2405 114.666 56.1678 113.743 54.9321" fill="white"></path></svg>